<svg xmlns="http://www.w3.org/2000/svg" viewBox="0 0 1226.29 374.34"><defs><style>.cls-1,.cls-2{fill:#fff;}.cls-1{fill-rule:evenodd;}</style></defs><title>EMUI9.1-横向</title><g id="图层_2" data-name="图层 2"><g id="Layer_1" data-name="Layer 1"><path class="cls-1" d="M918.42,21.58c-49.5,0-89.62,40.31-89.62,90.05s40.12,90.05,89.62,90.05,89.63-40.31,89.63-90.05S967.92,21.58,918.42,21.58Zm0,169.7c-43.71,0-79.27-35.73-79.27-79.65S874.71,32,918.42,32s79.27,35.73,79.27,79.65S962.13,191.28,918.42,191.28Z"/><path class="cls-1" d="M918.42,43.13a68.5,68.5,0,1,0,68.18,68.5A68.34,68.34,0,0,0,918.42,43.13Zm0,126.6a58.1,58.1,0,1,1,57.82-58.1A58,58,0,0,1,918.42,169.73Z"/><path class="cls-1" d="M918.42,0c-61.36,0-111.1,50-111.1,111.63s49.74,111.63,111.1,111.63q1.27,0,2.55,0L840.16,363.89h61.57L1013.14,170a111.46,111.46,0,0,0,16.38-58.36C1029.52,50,979.78,0,918.42,0ZM871,353.46H858.09l75.4-131.22a110.29,110.29,0,0,0,14.61-3Zm24.81,0H882.92l80.22-139.62A109.73,109.73,0,0,0,982.21,203Zm22.64-140.6c-55.55,0-100.74-45.41-100.74-101.23S862.87,10.4,918.42,10.4s100.75,45.41,100.75,101.23S974,212.86,918.42,212.86Z"/><path class="cls-2" d="M11.47,149.58V243H171.29a5.74,5.74,0,0,1,0,11.48H11.47v93.42H171.29a5.74,5.74,0,1,1,0,11.48H5.74A5.74,5.74,0,0,1,0,353.65V143.84a5.74,5.74,0,0,1,5.74-5.73H171.29a5.74,5.74,0,1,1,0,11.47Zm440.89-7.81c0,.15,0,.29,0,.44V353.65a5.74,5.74,0,1,1-11.47,0V159.56l-98.17,132.1L386,349.9a5.64,5.64,0,0,1,1.09,3.51,2,2,0,0,1,0,.24,5.74,5.74,0,0,1-5.74,5.74H289.8a5.73,5.73,0,0,1-5.73-5.74c0-.08,0-.16,0-.24a5.76,5.76,0,0,1,1.09-3.51l43.28-58.24L230.3,159.57V353.65a5.74,5.74,0,0,1-11.48,0V142.21c0-.15,0-.29.05-.43a4.53,4.53,0,0,1,0-.53,5.49,5.49,0,0,1,.17-.7c0-.11.07-.23.11-.34a6.41,6.41,0,0,1,.35-.75l.12-.22a7.09,7.09,0,0,1,.56-.76l.1-.12a5.72,5.72,0,0,1,4.23-1.89,5.79,5.79,0,0,1,1.92.35h0a8.39,8.39,0,0,1,1,.45l.06,0a6.1,6.1,0,0,1,.83.61l.08.06a6.85,6.85,0,0,1,.72.8l0,0,0,.05.14.18,106.26,143,106.27-143,.13-.18,0-.05a.08.08,0,0,0,0,0,6.85,6.85,0,0,1,.72-.8l.09-.06a6,6,0,0,1,.82-.61l.07,0a5.46,5.46,0,0,1,1-.44h0a5.88,5.88,0,0,1,1.92-.35,5.7,5.7,0,0,1,4.24,1.9l.08.09a6.23,6.23,0,0,1,.57.78l.12.21a7.43,7.43,0,0,1,.35.76c0,.11.07.22.11.33a5.65,5.65,0,0,1,.17.71C452.33,141.42,452.34,141.59,452.36,141.77ZM335.61,301.28,301,347.91h69.31Zm393-164.81a5.73,5.73,0,0,0-5.73,5.74V353.65a5.74,5.74,0,1,0,11.47,0V142.21A5.74,5.74,0,0,0,728.59,136.47ZM672,142.21a5.74,5.74,0,1,0-11.47,0V207.6h0v75.72c0,37.88-33.13,68.7-73.84,68.7s-73.84-30.82-73.84-68.7V142.21a5.74,5.74,0,1,0-11.48,0V283.32c0,44.21,38.28,80.18,85.32,80.18s85.31-36,85.31-80.18V194.49h0Z"/><path class="cls-2" d="M1020.11,362.28a16.41,16.41,0,1,1,16.4-16.41A16.43,16.43,0,0,1,1020.11,362.28Zm0-27.45a11,11,0,1,0,11,11A11.06,11.06,0,0,0,1020.11,334.83Z"/><path class="cls-2" d="M1020.11,374.34a28.47,28.47,0,1,1,28.46-28.47A28.5,28.5,0,0,1,1020.11,374.34Zm0-51.57a23.11,23.11,0,1,0,23.1,23.1A23.14,23.14,0,0,0,1020.11,322.77Z"/><path class="cls-2" d="M1159.32,121.22l18-21.78L1177,367.56l48.84.06.43-355.31-48.85-.07-59.51,74.63Zm-.37-14.33L1133.25,86l52.09-64.08,31.28,0-.4,336h-9.93l.38-322.46-17.57.08L1151.39,82l9.42,7.09,36.19-44-.37,312.81h-9.94L1187,74Z"/><circle class="cls-2" cx="1020.11" cy="345.88" r="5.56"/></g></g></svg>